<?xml version="1.0" encoding="utf-8"?>
<!-- Generator: Adobe Illustrator 25.0.0, SVG Export Plug-In . SVG Version: 6.00 Build 0)  -->
<svg version="1.1" id="Réteg_1" xmlns="http://www.w3.org/2000/svg" xmlns:xlink="http://www.w3.org/1999/xlink" x="0px" y="0px"
	 viewBox="0 0 25 25" style="enable-background:new 0 0 25 25;" xml:space="preserve">
<style type="text/css">
	.st0{fill:#020203;}
	.st1{fill-rule:evenodd;clip-rule:evenodd;fill:#010202;}
	.st2{fill:#010202;}
	.st3{fill-rule:evenodd;clip-rule:evenodd;fill:#010202;stroke:#000000;stroke-miterlimit:10;}
	.st4{fill:#010202;stroke:#000000;stroke-miterlimit:10;}
	.st5{fill-rule:evenodd;clip-rule:evenodd;fill:#010202;stroke:#000000;stroke-width:0.9029;stroke-miterlimit:10;}
	.st6{fill:#010202;stroke:#000000;stroke-width:0.9029;stroke-miterlimit:10;}
	.st7{fill-rule:evenodd;clip-rule:evenodd;fill:#FFFFFF;}
	.st8{fill:#FFFFFF;}
</style>
<path class="st0" d="M-8.3,51.17c3.33,0.74,5.8,3.73,5.8,7.29s-2.47,6.55-5.8,7.29c-0.46,0.1-0.9-0.25-0.9-0.73V51.9
	C-9.2,51.42-8.76,51.07-8.3,51.17z M-11.62,51.17c-2.79,0.63-4.98,2.83-5.62,5.63c-0.1,0.47,0.25,0.91,0.73,0.91h5.05
	c0.41,0,0.74-0.33,0.74-0.74V51.9C-10.71,51.42-11.15,51.07-11.62,51.17z M-11.47,59.21h-5.05c-0.47,0-0.83,0.45-0.73,0.91
	c0.63,2.8,2.83,5.01,5.62,5.64c0.47,0.1,0.91-0.25,0.91-0.73v-5.07C-10.71,59.55-11.05,59.21-11.47,59.21z"/>
<path class="st0" d="M-7.36,49.96c2.79,0.87,5,3.08,5.87,5.87c0.24,0.8,0.97,1.36,1.8,1.36h0.05c1.27,0,2.19-1.22,1.82-2.43
	c-1.24-4.05-4.43-7.24-8.48-8.48c-1.2-0.37-2.42,0.55-2.42,1.82v0.05C-8.72,48.99-8.16,49.71-7.36,49.96z M-1.49,61.1
	c-0.87,2.8-3.08,5-5.87,5.87c-0.8,0.24-1.36,0.97-1.36,1.8v0.05c0,1.27,1.22,2.19,2.43,1.82c4.05-1.24,7.24-4.43,8.48-8.48
	c0.37-1.21-0.55-2.43-1.81-2.43H0.32C-0.52,59.74-1.24,60.3-1.49,61.1z M-11.26,68.79c0-0.85-0.57-1.58-1.39-1.83
	c-3.62-1.13-6.25-4.51-6.25-8.49s2.64-7.36,6.25-8.49c0.81-0.25,1.39-0.98,1.39-1.83v-0.01c0-1.27-1.24-2.22-2.46-1.83
	c-5.21,1.59-9,6.44-9,12.17s3.79,10.58,9,12.17C-12.5,71.02-11.26,70.07-11.26,68.79z"/>
<path class="st0" d="M-36.99,29.04c3.33,0.74,5.8,3.73,5.8,7.29s-2.47,6.55-5.8,7.29c-0.46,0.1-0.9-0.25-0.9-0.73V29.77
	C-37.89,29.3-37.45,28.94-36.99,29.04z M-40.3,29.04c-2.79,0.63-4.98,2.83-5.62,5.63c-0.1,0.47,0.25,0.91,0.73,0.91h5.05
	c0.41,0,0.74-0.33,0.74-0.74v-5.07C-39.4,29.3-39.84,28.94-40.3,29.04z M-40.15,37.08h-5.05c-0.47,0-0.83,0.45-0.73,0.91
	c0.63,2.8,2.83,5.01,5.62,5.64c0.47,0.1,0.91-0.25,0.91-0.73v-5.07C-39.4,37.42-39.73,37.09-40.15,37.08z"/>
<path class="st0" d="M-36.04,27.83c2.79,0.87,5,3.08,5.87,5.87c0.24,0.8,0.97,1.36,1.8,1.36h0.05c1.27,0,2.19-1.22,1.82-2.43
	c-1.24-4.05-4.43-7.24-8.48-8.48c-1.2-0.37-2.42,0.55-2.42,1.82v0.05C-37.4,26.86-36.84,27.59-36.04,27.83z M-30.17,38.97
	c-0.87,2.8-3.08,5-5.87,5.87c-0.8,0.24-1.36,0.97-1.36,1.8v0.05c0,1.27,1.22,2.19,2.43,1.82c4.05-1.24,7.24-4.43,8.48-8.48
	c0.37-1.21-0.55-2.43-1.81-2.43h-0.06C-29.2,37.61-29.93,38.17-30.17,38.97z M-39.95,46.66c0-0.85-0.57-1.58-1.39-1.83
	c-3.62-1.13-6.25-4.51-6.25-8.49s2.64-7.36,6.25-8.49c0.81-0.25,1.39-0.98,1.39-1.83V26c0-1.27-1.24-2.22-2.46-1.83
	c-5.21,1.59-9,6.44-9,12.17s3.79,10.58,9,12.17C-41.18,48.89-39.95,47.95-39.95,46.66z"/>
<path class="st0" d="M-36.28-2.1c3.33,0.74,5.8,3.73,5.8,7.29s-2.47,6.55-5.8,7.29c-0.46,0.1-0.9-0.25-0.9-0.73V-1.37
	C-37.18-1.85-36.74-2.2-36.28-2.1z M-39.6-2.1c-2.79,0.63-4.98,2.83-5.62,5.63c-0.1,0.47,0.25,0.91,0.73,0.91h5.05
	c0.41,0,0.74-0.33,0.74-0.74v-5.07C-38.69-1.85-39.13-2.2-39.6-2.1z M-39.44,5.94h-5.05c-0.47,0-0.83,0.45-0.73,0.91
	c0.63,2.8,2.83,5.01,5.62,5.64c0.47,0.1,0.91-0.25,0.91-0.73V6.69C-38.69,6.28-39.02,5.94-39.44,5.94z"/>
<path class="st0" d="M-35.03-3.23c2.76,0.86,4.96,3.06,5.82,5.82c0.24,0.8,0.96,1.35,1.78,1.35h0.05c1.26,0,2.17-1.21,1.81-2.41
	c-1.22-4.01-4.39-7.18-8.41-8.41c-1.19-0.37-2.4,0.54-2.4,1.81v0.05C-36.38-4.19-35.83-3.47-35.03-3.23z M-29.21,7.81
	c-0.86,2.78-3.06,4.96-5.82,5.82c-0.8,0.24-1.35,0.96-1.35,1.78v0.05c0,1.26,1.21,2.17,2.41,1.81c4.01-1.22,7.18-4.39,8.41-8.41
	c0.37-1.2-0.54-2.41-1.79-2.41h-0.06C-28.25,6.46-28.97,7.02-29.21,7.81z M-38.91,15.44c0-0.85-0.57-1.57-1.38-1.82
	c-3.59-1.12-6.2-4.47-6.2-8.42s2.61-7.3,6.2-8.42c0.81-0.25,1.38-0.97,1.38-1.82v-0.01c0-1.26-1.22-2.2-2.44-1.82
	c-5.16,1.58-8.93,6.39-8.93,12.07s3.76,10.49,8.93,12.07C-40.13,17.65-38.91,16.72-38.91,15.44z"/>
<path class="st1" d="M-18.45-29.36c0.41,0,0.74,0.33,0.74,0.74v0.74H-5.9v-0.74c0-0.41,0.33-0.74,0.74-0.74
	c0.41,0,0.74,0.33,0.74,0.74v0.74h1.48c1.63,0,2.95,1.32,2.95,2.95v16.24c0,1.63-1.32,2.95-2.95,2.95h-17.71
	c-1.63,0-2.95-1.32-2.95-2.95v-16.24c0-1.63,1.32-2.95,2.95-2.95h1.48v-0.74C-19.19-29.03-18.86-29.36-18.45-29.36z M-20.66-26.4
	c-0.82,0-1.48,0.66-1.48,1.48v16.24c0,0.82,0.66,1.48,1.48,1.48h17.71c0.82,0,1.48-0.66,1.48-1.48v-16.24
	c0-0.82-0.66-1.48-1.48-1.48H-20.66z"/>
<path class="st2" d="M-19.93-23.45c0-0.41,0.33-0.74,0.74-0.74h14.76c0.41,0,0.74,0.33,0.74,0.74v1.48c0,0.41-0.33,0.74-0.74,0.74
	h-14.76c-0.41,0-0.74-0.33-0.74-0.74V-23.45z"/>
<path class="st3" d="M-11.44-17.42c2.01,0,3.63,1.63,3.63,3.64c0,2.01-1.63,3.63-3.64,3.63s-3.63-1.63-3.63-3.64
	c0-0.52,0.11-1.04,0.33-1.51c0.08-0.19-0.01-0.4-0.2-0.47c-0.18-0.07-0.38,0-0.46,0.17c-1,2.19-0.04,4.78,2.14,5.78
	s4.78,0.04,5.78-2.14s0.04-4.78-2.14-5.78c-0.57-0.26-1.19-0.4-1.82-0.4V-17.42z"/>
<path class="st4" d="M-11.44-16.36v-2.86c0-0.1-0.08-0.18-0.18-0.18c-0.04,0-0.08,0.01-0.12,0.04l-1.72,1.43
	c-0.08,0.06-0.09,0.18-0.02,0.26c0.01,0.01,0.01,0.02,0.02,0.02l1.72,1.43c0.08,0.06,0.19,0.05,0.26-0.02
	C-11.45-16.27-11.44-16.32-11.44-16.36z"/>
<g>
	<path class="st1" d="M105.94-73.87c0.41,0,0.74,0.33,0.74,0.74v0.74h11.81v-0.74c0-0.41,0.33-0.74,0.74-0.74s0.74,0.33,0.74,0.74
		v0.74h1.48c1.63,0,2.95,1.32,2.95,2.95v16.24c0,1.63-1.32,2.95-2.95,2.95h-17.71c-1.63,0-2.95-1.32-2.95-2.95v-16.24
		c0-1.63,1.32-2.95,2.95-2.95h1.48v-0.74C105.2-73.54,105.54-73.87,105.94-73.87z M103.73-70.92c-0.82,0-1.48,0.66-1.48,1.48v16.24
		c0,0.82,0.66,1.48,1.48,1.48h17.71c0.82,0,1.48-0.66,1.48-1.48v-16.24c0-0.82-0.66-1.48-1.48-1.48H103.73z"/>
	<path class="st2" d="M104.47-67.96c0-0.41,0.33-0.74,0.74-0.74h14.76c0.41,0,0.74,0.33,0.74,0.74v1.48c0,0.41-0.33,0.74-0.74,0.74
		H105.2c-0.41,0-0.74-0.33-0.74-0.74V-67.96z"/>
	<path class="st5" d="M112.95-61.64c1.81,0,3.28,1.47,3.28,3.28c0,1.81-1.47,3.28-3.28,3.28c-1.81,0-3.28-1.47-3.28-3.28
		c0-0.47,0.1-0.94,0.3-1.37c0.07-0.17-0.01-0.36-0.18-0.43c-0.16-0.06-0.34,0-0.42,0.15c-0.91,1.98-0.04,4.31,1.94,5.22
		c1.98,0.91,4.31,0.04,5.22-1.94s0.04-4.31-1.94-5.22c-0.52-0.24-1.08-0.36-1.64-0.36V-61.64z"/>
	<path class="st6" d="M112.95-60.68v-2.58c0-0.09-0.07-0.16-0.16-0.16c-0.04,0-0.08,0.01-0.1,0.04l-1.55,1.29
		c-0.07,0.06-0.08,0.16-0.02,0.23c0.01,0.01,0.01,0.01,0.02,0.02l1.55,1.29c0.07,0.06,0.17,0.05,0.23-0.02
		C112.94-60.61,112.95-60.64,112.95-60.68z"/>
</g>
<g>
	<g>
		<path class="st7" d="M5.86,0.69c0.41,0,0.74,0.33,0.74,0.74v0.74H18.4V1.43c0-0.41,0.33-0.74,0.74-0.74
			c0.41,0,0.74,0.33,0.74,0.74v0.74h1.48c1.63,0,2.95,1.32,2.95,2.95v16.24c0,1.63-1.32,2.95-2.95,2.95H3.64
			c-1.63,0-2.95-1.32-2.95-2.95V5.12c0-1.63,1.32-2.95,2.95-2.95h1.48V1.43C5.12,1.02,5.45,0.69,5.86,0.69z M3.64,3.64
			c-0.82,0-1.48,0.66-1.48,1.48v16.24c0,0.82,0.66,1.48,1.48,1.48h17.71c0.82,0,1.48-0.66,1.48-1.48V5.12
			c0-0.82-0.66-1.48-1.48-1.48H3.64z"/>
	</g>
	<g>
		<path class="st8" d="M4.38,6.6c0-0.41,0.33-0.74,0.74-0.74h14.76c0.41,0,0.74,0.33,0.74,0.74v1.48c0,0.41-0.33,0.74-0.74,0.74
			H5.12c-0.41,0-0.74-0.33-0.74-0.74V6.6z"/>
	</g>
	<g>
		<path class="st7" d="M12.87,12.92c1.81,0,3.28,1.47,3.28,3.28s-1.47,3.28-3.28,3.28s-3.28-1.47-3.28-3.28
			c0-0.47,0.1-0.94,0.3-1.37c0.07-0.17-0.01-0.36-0.18-0.43c-0.16-0.06-0.34,0-0.42,0.15c-0.91,1.98-0.04,4.31,1.94,5.22
			c1.98,0.91,4.31,0.04,5.22-1.94s0.04-4.31-1.94-5.22c-0.52-0.24-1.08-0.36-1.64-0.36V12.92z"/>
		<path class="st8" d="M12.87,20.59c-0.62,0-1.25-0.13-1.83-0.4c-1.07-0.49-1.88-1.36-2.28-2.46c-0.41-1.1-0.36-2.29,0.13-3.36
			c0.19-0.38,0.62-0.54,1-0.38c0.4,0.16,0.59,0.62,0.43,1.02c-0.18,0.38-0.27,0.79-0.27,1.2c0,1.56,1.27,2.83,2.83,2.83c0,0,0,0,0,0
			c1.56,0,2.83-1.27,2.83-2.83c0-1.56-1.27-2.83-2.83-2.83h-0.45v-1.56h0.45c0.63,0,1.26,0.14,1.83,0.4
			c1.07,0.49,1.88,1.36,2.28,2.46c0.41,1.1,0.36,2.29-0.13,3.36s-1.36,1.88-2.46,2.28C13.9,20.5,13.38,20.59,12.87,20.59z"/>
	</g>
	<g>
		<path class="st8" d="M12.87,13.88V11.3c0-0.09-0.07-0.16-0.16-0.16c-0.04,0-0.08,0.01-0.1,0.04l-1.55,1.29
			c-0.07,0.06-0.08,0.16-0.02,0.23c0.01,0.01,0.01,0.01,0.02,0.02L12.6,14c0.07,0.06,0.17,0.05,0.23-0.02
			C12.86,13.95,12.87,13.92,12.87,13.88z"/>
		<path class="st8" d="M12.71,14.49c-0.14,0-0.28-0.05-0.39-0.14l-1.62-1.36c-0.22-0.27-0.19-0.66,0.07-0.87l1.55-1.29
			c0.38-0.31,1.01-0.01,1.01,0.47v2.59c0,0.14-0.05,0.28-0.14,0.39C13.06,14.42,12.88,14.49,12.71,14.49z M11.6,12.59l0.82,0.68
			v-1.36L11.6,12.59z"/>
	</g>
</g>
</svg>
