<?xml version="1.0" encoding="utf-8"?>
<!-- Generator: Adobe Illustrator 25.0.0, SVG Export Plug-In . SVG Version: 6.00 Build 0)  -->
<svg version="1.1" id="Réteg_1" xmlns="http://www.w3.org/2000/svg" xmlns:xlink="http://www.w3.org/1999/xlink" x="0px" y="0px"
	 viewBox="0 0 25 25" style="enable-background:new 0 0 25 25;" xml:space="preserve">
<style type="text/css">
	.st0{fill:#ffffff;}
</style>
<path class="st0" d="M14.42,5.21c3.33,0.74,5.8,3.73,5.8,7.29s-2.47,6.55-5.8,7.29c-0.46,0.1-0.9-0.25-0.9-0.73V5.94
	C13.52,5.47,13.96,5.11,14.42,5.21z M11.1,5.21c-2.79,0.63-4.98,2.83-5.62,5.63c-0.1,0.47,0.25,0.91,0.73,0.91h5.05
	c0.41,0,0.74-0.33,0.74-0.74V5.94C12.01,5.47,11.57,5.11,11.1,5.21z M11.26,13.25H6.21c-0.47,0-0.83,0.45-0.73,0.91
	c0.63,2.8,2.83,5.01,5.62,5.64c0.47,0.1,0.91-0.25,0.91-0.73V14C12.01,13.59,11.67,13.26,11.26,13.25z"/>
<path class="st0" d="M15.37,4c2.79,0.87,5,3.08,5.87,5.87c0.24,0.8,0.97,1.36,1.8,1.36h0.05c1.27,0,2.19-1.22,1.82-2.43
	c-1.24-4.05-4.43-7.24-8.48-8.48c-1.2-0.37-2.42,0.55-2.42,1.82v0.05C14.01,3.03,14.57,3.76,15.37,4z M21.24,15.14
	c-0.87,2.8-3.08,5-5.87,5.87c-0.8,0.24-1.36,0.97-1.36,1.8v0.05c0,1.27,1.22,2.19,2.43,1.82c4.05-1.24,7.24-4.43,8.48-8.48
	c0.37-1.21-0.55-2.43-1.81-2.43h-0.06C22.21,13.78,21.48,14.34,21.24,15.14z M11.46,22.83c0-0.85-0.57-1.58-1.39-1.83
	c-3.62-1.13-6.25-4.51-6.25-8.49s2.64-7.36,6.25-8.49c0.81-0.25,1.39-0.98,1.39-1.83V2.17c0-1.27-1.24-2.22-2.46-1.83
	C3.79,1.92,0,6.78,0,12.5s3.79,10.58,9,12.17C10.22,25.06,11.46,24.12,11.46,22.83z"/>
<path class="st0" d="M-36.99,29.04c3.33,0.74,5.8,3.73,5.8,7.29s-2.47,6.55-5.8,7.29c-0.46,0.1-0.9-0.25-0.9-0.73V29.77
	C-37.89,29.3-37.45,28.94-36.99,29.04z M-40.3,29.04c-2.79,0.63-4.98,2.83-5.62,5.63c-0.1,0.47,0.25,0.91,0.73,0.91h5.05
	c0.41,0,0.74-0.33,0.74-0.74v-5.07C-39.4,29.3-39.84,28.94-40.3,29.04z M-40.15,37.08h-5.05c-0.47,0-0.83,0.45-0.73,0.91
	c0.63,2.8,2.83,5.01,5.62,5.64c0.47,0.1,0.91-0.25,0.91-0.73v-5.07C-39.4,37.42-39.73,37.09-40.15,37.08z"/>
<path class="st0" d="M-36.04,27.83c2.79,0.87,5,3.08,5.87,5.87c0.24,0.8,0.97,1.36,1.8,1.36h0.05c1.27,0,2.19-1.22,1.82-2.43
	c-1.24-4.05-4.43-7.24-8.48-8.48c-1.2-0.37-2.42,0.55-2.42,1.82v0.05C-37.4,26.86-36.84,27.59-36.04,27.83z M-30.17,38.97
	c-0.87,2.8-3.08,5-5.87,5.87c-0.8,0.24-1.36,0.97-1.36,1.8v0.05c0,1.27,1.22,2.19,2.43,1.82c4.05-1.24,7.24-4.43,8.48-8.48
	c0.37-1.21-0.55-2.43-1.81-2.43h-0.06C-29.2,37.61-29.93,38.17-30.17,38.97z M-39.95,46.66c0-0.85-0.57-1.58-1.39-1.83
	c-3.62-1.13-6.25-4.51-6.25-8.49s2.64-7.36,6.25-8.49c0.81-0.25,1.39-0.98,1.39-1.83V26c0-1.27-1.24-2.22-2.46-1.83
	c-5.21,1.59-9,6.44-9,12.17s3.79,10.58,9,12.17C-41.18,48.89-39.95,47.95-39.95,46.66z"/>
<path class="st0" d="M-36.28-2.1c3.33,0.74,5.8,3.73,5.8,7.29s-2.47,6.55-5.8,7.29c-0.46,0.1-0.9-0.25-0.9-0.73V-1.37
	C-37.18-1.85-36.74-2.2-36.28-2.1z M-39.6-2.1c-2.79,0.63-4.98,2.83-5.62,5.63c-0.1,0.47,0.25,0.91,0.73,0.91h5.05
	c0.41,0,0.74-0.33,0.74-0.74v-5.07C-38.69-1.85-39.13-2.2-39.6-2.1z M-39.44,5.94h-5.05c-0.47,0-0.83,0.45-0.73,0.91
	c0.63,2.8,2.83,5.01,5.62,5.64c0.47,0.1,0.91-0.25,0.91-0.73V6.69C-38.69,6.28-39.02,5.94-39.44,5.94z"/>
<path class="st0" d="M-35.03-3.23c2.76,0.86,4.96,3.06,5.82,5.82c0.24,0.8,0.96,1.35,1.78,1.35h0.05c1.26,0,2.17-1.21,1.81-2.41
	c-1.22-4.01-4.39-7.18-8.41-8.41c-1.19-0.37-2.4,0.54-2.4,1.81v0.05C-36.38-4.19-35.83-3.47-35.03-3.23z M-29.21,7.81
	c-0.86,2.78-3.06,4.96-5.82,5.82c-0.8,0.24-1.35,0.96-1.35,1.78v0.05c0,1.26,1.21,2.17,2.41,1.81c4.01-1.22,7.18-4.39,8.41-8.41
	c0.37-1.2-0.54-2.41-1.79-2.41h-0.06C-28.25,6.46-28.97,7.02-29.21,7.81z M-38.91,15.44c0-0.85-0.57-1.57-1.38-1.82
	c-3.59-1.12-6.2-4.47-6.2-8.42s2.61-7.3,6.2-8.42c0.81-0.25,1.38-0.97,1.38-1.82v-0.01c0-1.26-1.22-2.2-2.44-1.82
	c-5.16,1.58-8.93,6.39-8.93,12.07s3.76,10.49,8.93,12.07C-40.13,17.65-38.91,16.72-38.91,15.44z"/>
</svg>
